<svg xmlns="http://www.w3.org/2000/svg" xmlns:xlink="http://www.w3.org/1999/xlink" version="1.1" width="768" height="768" viewBox="0 0 768 768" xml:space="preserve">
<defs>
</defs>
<g style="stroke: none; stroke-width: 0; stroke-dasharray: none; stroke-linecap: butt; stroke-linejoin: miter; stroke-miterlimit: 10; fill: none; fill-rule: nonzero; opacity: 1;" transform="translate(4.2198 4.2198) scale(8.43 8.43)">
	<rect x="27.12" y="85.2" rx="0" ry="0" width="215.76" height="184.8" style="stroke: none; stroke-width: 1; stroke-dasharray: none; stroke-linecap: butt; stroke-linejoin: miter; stroke-miterlimit: 10; fill: rgb(247,89,89); fill-rule: nonzero; opacity: 1;" transform=" matrix(1 0 0 1 0 0) "/>
	<path d="M 231.045 0 H 38.955 C 32.418 0 27.12 5.298 27.12 11.832 v 58.353 h 215.76 V 11.832 C 246.48 5.298 241.182 0 231.045 0 z" style="stroke: none; stroke-width: 1; stroke-dasharray: none; stroke-linecap: butt; stroke-linejoin: miter; stroke-miterlimit: 10; fill: rgb(247,89,89); fill-rule: nonzero; opacity: 1;" transform=" matrix(1 0 0 1 0 0) " stroke-linecap="round" />
	<path d="M 156.315 264 h -42.63 V 187.497 c 0 -2.946 2.387 -5.336 5.337 -5.336 h 31.957 c 2.947 0 5.336 2.39 5.336 5.336 V 264 z" style="stroke: none; stroke-width: 1; stroke-dasharray: none; stroke-linecap: butt; stroke-linejoin: miter; stroke-miterlimit: 10; fill: rgb(249,249,249); fill-rule: nonzero; opacity: 1;" transform=" matrix(1 0 0 1 0 0) " stroke-linecap="round" />
	<path d="M 153.294 117.21 H 116.707 c -1.667 0 -3.021 1.352 -3.021 3.021 v 36.588 c 0 1.667 1.353 3.021 3.021 3.021 h 36.588 c 1.667 0 3.021 -1.352 3.021 -3.021 V 120.231 C 156.315 118.563 154.96 117.21 153.294 117.21 z" style="stroke: none; stroke-width: 1; stroke-dasharray: none; stroke-linecap: butt; stroke-linejoin: miter; stroke-miterlimit: 10; fill: rgb(249,249,249); fill-rule: nonzero; opacity: 1;" transform=" matrix(1 0 0 1 0 0) " stroke-linecap="round" />
	<path d="M 205.797 117.21 H 180.812 c -1.667 0 -3.021 1.352 -3.021 3.021 v 36.588 c 0 1.667 1.353 3.021 3.021 3.021 h 36.588 c 1.667 0 3.021 -1.352 3.021 -3.021 V 120.231 C 208.818 118.563 207.463 117.21 205.797 117.21 z" style="stroke: none; stroke-width: 1; stroke-dasharray: none; stroke-linecap: butt; stroke-linejoin: miter; stroke-miterlimit: 10; fill: rgb(249,249,249); fill-rule: nonzero; opacity: 1;" transform=" matrix(1 0 0 1 0 0) " stroke-linecap="round" />
	<path d="M 88.788 117.21 H 52.314 c -1.667 0 -3.021 1.352 -3.021 3.021 v 36.588 c 0 1.667 1.353 3.021 3.021 3.021 h 36.588 c 1.667 0 3.021 -1.352 3.021 -3.021 V 120.231 C 91.809 118.563 90.454 117.21 88.788 117.21 z" style="stroke: none; stroke-width: 1; stroke-dasharray: none; stroke-linecap: butt; stroke-linejoin: miter; stroke-miterlimit: 10; fill: rgb(249,249,249); fill-rule: nonzero; opacity: 1;" transform=" matrix(1 0 0 1 0 0) " stroke-linecap="round" />
	<path d="M 205.797 182.16 H 180.812 c -1.667 0 -3.021 1.352 -3.021 3.021 v 36.588 c 0 1.667 1.353 3.021 3.021 3.021 h 36.588 c 1.667 0 3.021 -1.352 3.021 -3.021 V 185.181 C 208.818 183.513 207.463 182.16 205.797 182.16 z" style="stroke: none; stroke-width: 1; stroke-dasharray: none; stroke-linecap: butt; stroke-linejoin: miter; stroke-miterlimit: 10; fill: rgb(249,249,249); fill-rule: nonzero; opacity: 1;" transform=" matrix(1 0 0 1 0 0) " stroke-linecap="round" />
	<path d="M 88.788 182.16 H 52.314 c -1.667 0 -3.021 1.352 -3.021 3.021 v 36.588 c 0 1.667 1.353 3.021 3.021 3.021 h 36.588 c 1.667 0 3.021 -1.352 3.021 -3.021 V 185.181 C 91.809 183.513 90.454 182.16 88.788 182.16 z" style="stroke: none; stroke-width: 1; stroke-dasharray: none; stroke-linecap: butt; stroke-linejoin: miter; stroke-miterlimit: 10; fill: rgb(249,249,249); fill-rule: nonzero; opacity: 1;" transform=" matrix(1 0 0 1 0 0) " stroke-linecap="round" />
	<path d="M 262.275 64.785 H 4.725 C 2.385 64.785 0.75 66.12 0.75 67.46 v 16.822 c 0 1.345 1.635 2.725 3.975 2.725 h 257.55 c 2.34 0 3.975 -1.38 3.975 -2.725 v -16.822 C 266.25 66.12 264.615 64.785 262.275 64.785 z" style="stroke: none; stroke-width: 1; stroke-dasharray: none; stroke-linecap: butt; stroke-linejoin: miter; stroke-miterlimit: 10; fill: rgb(223,80,80); fill-rule: nonzero; opacity: 1;" transform=" matrix(1 0 0 1 0 0) " stroke-linecap="round" />
	<path d="M 76.107 12.414 c -0.832 0 -1.493 0.661 -1.493 1.493 v 7.051 h -7.72 v -7.052 c 0 -0.832 -0.661 -1.493 -1.493 -1.493 s -1.493 0.661 -1.493 1.493 v 20.922 c 0 0.832 0.661 1.493 1.493 1.493 s 1.493 -0.661 1.493 -1.493 v -7.049 h 7.72 v 7.049 c 0 0.832 0.661 1.493 1.493 1.493 s 1.493 -0.661 1.493 -1.493 V 13.907 C 77.6 13.075 76.939 12.414 76.107 12.414 z" style="stroke: none; stroke-width: 1; stroke-dasharray: none; stroke-linecap: butt; stroke-linejoin: miter; stroke-miterlimit: 10; fill: rgb(248,248,248); fill-rule: nonzero; opacity: 1;" transform=" matrix(1 0 0 1 0 0) " stroke-linecap="round" />
</g>
</svg>
